# xmcd CD database file
#
# Track frame offsets:
#	150
#	20588
#	43994
#	64433
#
# Disc length: 1168 seconds
#
# Revision: 0
# Processed by: cddbd v1.5.2PL0 Copyright (c) Steve Scherf et al.
# Submitted via: CDex 1.70beta3
#
DISCID=38048e04
DTITLE=Lead - 想い出ブレイカー
DYEAR=2014
DGENRE=VISION FACTORY
TTITLE0=想い出ブレイカー
TTITLE1=Summer Love Story
TTITLE2=想い出ブレイカー (Instrumental)
TTITLE3=Summer Love Story (Instrumental)
EXTD=YEAR: 2014
EXTT0=
EXTT1=
EXTT2=
EXTT3=
PLAYORDER=
